<?xml version="1.0" encoding="UTF-8" standalone="no"?>
<svg
   viewBox="0 0 720.8 81.8"
   version="1.1"
   id="svg10138"
   sodipodi:docname="Instructure_logo.svg"
   inkscape:version="1.2.2 (b0a84865, 2022-12-01)"
   xmlns:inkscape="http://www.inkscape.org/namespaces/inkscape"
   xmlns:sodipodi="http://sodipodi.sourceforge.net/DTD/sodipodi-0.dtd"
   xmlns="http://www.w3.org/2000/svg"
   xmlns:svg="http://www.w3.org/2000/svg">
  <defs
     id="defs10142" />
  <sodipodi:namedview
     id="namedview10140"
     pagecolor="#ffffff"
     bordercolor="#000000"
     borderopacity="0.25"
     inkscape:showpageshadow="2"
     inkscape:pageopacity="0.0"
     inkscape:pagecheckerboard="0"
     inkscape:deskcolor="#d1d1d1"
     showgrid="false"
     inkscape:zoom="1.6301332"
     inkscape:cx="367.76136"
     inkscape:cy="43.861446"
     inkscape:window-width="1235"
     inkscape:window-height="667"
     inkscape:window-x="0"
     inkscape:window-y="25"
     inkscape:window-maximized="0"
     inkscape:current-layer="svg10138" />
  <path
     d="M0 81.1V.7h15.7v80.5H0zm80.9 0L49 31.8v49.4H33.3V.7h14L79.2 50V.7h15.7v80.5h-14zm54.9.7c-12.2 0-21.5-2.6-29.4-10.6L116.6 61c5.1 5.1 12 6.8 19.4 6.8 9.3 0 14.2-3.5 14.2-9.9 0-2.8-.8-5.2-2.5-6.8-1.6-1.5-3.4-2.3-7.1-2.8l-9.7-1.4c-6.9-1-12-3.2-15.6-6.7-3.8-3.8-5.8-9-5.8-15.8 0-14.4 10.6-24.4 28-24.4 11.1 0 19.1 2.7 26 9.4l-9.9 9.8c-5.1-4.9-11.2-5.5-16.5-5.5-8.4 0-12.4 4.6-12.4 10.2 0 2 .7 4.2 2.4 5.8 1.6 1.5 4.2 2.7 7.5 3.2l9.5 1.4c7.3 1 12 3.1 15.4 6.2 4.3 4.1 6.2 9.9 6.2 17.1 0 15.4-13 24.2-29.9 24.2zm73.1-67.1v66.4h-15.7V14.7h-21V.7H230v14h-21.1zm75.4 66.4L268.6 49h-11.3v32.1h-15.7V.7h31.5c16.4 0 26.1 11.2 26.1 24.6 0 11.3-6.9 18.3-14.7 21.1l18 34.7h-18.2zm-12.2-66.4h-14.8v21.2h14.8c6.9 0 11.4-4.4 11.4-10.6s-4.5-10.6-11.4-10.6zm70.6 67.1c-16.5 0-29.6-11.2-29.6-28.3V.7h15.7V53c0 9.3 5.4 14.8 13.9 14.8s14-5.5 14-14.8V.7h15.6v52.9c0 17-13.1 28.2-29.6 28.2zm74 0c-8.8 0-16-3.2-21.7-8.8-8.1-8.1-7.9-18.2-7.9-32.1s-.2-24 7.9-32.1c5.7-5.7 12.9-8.8 21.7-8.8 15 0 26.8 8.6 29.6 25.4h-15.9C428.8 19 424.8 14 416.9 14c-4.3 0-7.8 1.6-10.1 4.2-3.1 3.4-4 7.2-4 22.7s.9 19.3 4 22.7c2.3 2.6 5.8 4.2 10.1 4.2 7.9 0 12-5 13.6-11.4h15.9c-2.9 16.8-14.7 25.4-29.7 25.4zM488 14.7v66.4h-15.7V14.7h-21V.7H509v14h-21zm61.1 67.1c-16.5 0-29.6-11.2-29.6-28.3V.7h15.7V53c0 9.3 5.4 14.8 13.9 14.8s14-5.5 14-14.8V.7h15.6v52.9c0 17-13.1 28.2-29.6 28.2zm88.7-.7L622.1 49h-11.3v32.1h-15.7V.7h31.5c16.4 0 26.1 11.2 26.1 24.6 0 11.3-6.9 18.3-14.7 21.1l18 34.7h-18.2zm-12.2-66.4h-14.8v21.2h14.8c6.9 0 11.4-4.4 11.4-10.6s-4.5-10.6-11.4-10.6zm42.2 66.4V.7h53v14h-37.3v18.9h31.8v14h-31.8v19.6h37.3v14h-53z"
     fill="#A7A9AC"
     id="path10136"
     style="fill:#ffffff;fill-opacity:1" />
</svg>
